<?xml version="1.0" encoding="UTF-8"?>
<svg xmlns="http://www.w3.org/2000/svg" xmlns:xlink="http://www.w3.org/1999/xlink" viewBox="0 0 200 200">
  <defs>
    <style>
      .cls-1 {
        fill: url(#radial-gradient-10);
      }

      .cls-2 {
        fill: url(#linear-gradient-15);
      }

      .cls-3 {
        fill: url(#linear-gradient-13);
      }

      .cls-4 {
        fill: url(#linear-gradient-28);
      }

      .cls-5 {
        fill: url(#linear-gradient-2);
      }

      .cls-6 {
        fill: url(#radial-gradient-9);
      }

      .cls-7 {
        fill: url(#linear-gradient-25);
      }

      .cls-8 {
        fill: url(#linear-gradient-26);
      }

      .cls-8, .cls-9 {
        opacity: .5;
      }

      .cls-8, .cls-9, .cls-10 {
        mix-blend-mode: multiply;
      }

      .cls-11 {
        fill: url(#linear-gradient-10);
      }

      .cls-12 {
        fill: url(#linear-gradient-27);
      }

      .cls-9 {
        fill: url(#linear-gradient-31);
      }

      .cls-13 {
        fill: url(#radial-gradient-14);
      }

      .cls-14 {
        fill: #475254;
      }

      .cls-15 {
        fill: url(#radial-gradient-16);
      }

      .cls-16 {
        fill: url(#radial-gradient-18);
      }

      .cls-10 {
        fill: url(#linear-gradient-12);
        opacity: .2;
      }

      .cls-17 {
        fill: url(#linear-gradient-4);
      }

      .cls-18 {
        fill: url(#radial-gradient-5);
      }

      .cls-19 {
        fill: url(#linear-gradient-35);
      }

      .cls-20 {
        fill: url(#linear-gradient-30);
      }

      .cls-21 {
        fill: url(#radial-gradient);
      }

      .cls-22 {
        fill: url(#radial-gradient-3);
      }

      .cls-23 {
        fill: url(#linear-gradient-3);
      }

      .cls-24 {
        fill: url(#linear-gradient-34);
      }

      .cls-25 {
        fill: url(#linear-gradient-5);
      }

      .cls-26 {
        fill: url(#linear-gradient-22);
      }

      .cls-27 {
        fill: url(#linear-gradient-24);
      }

      .cls-28 {
        isolation: isolate;
      }

      .cls-29 {
        fill: url(#radial-gradient-11);
      }

      .cls-30 {
        fill: url(#linear-gradient-33);
      }

      .cls-31 {
        fill: url(#linear-gradient-8);
      }

      .cls-32 {
        fill: url(#radial-gradient-8);
      }

      .cls-33 {
        fill: url(#radial-gradient-2);
      }

      .cls-34 {
        fill: url(#linear-gradient-14);
      }

      .cls-35 {
        fill: url(#linear-gradient-29);
      }

      .cls-36 {
        fill: url(#linear-gradient-20);
      }

      .cls-37 {
        fill: url(#radial-gradient-4);
      }

      .cls-38 {
        fill: url(#linear-gradient-17);
      }

      .cls-39 {
        fill: url(#linear-gradient-7);
      }

      .cls-40 {
        fill: url(#linear-gradient-9);
      }

      .cls-41 {
        fill: url(#linear-gradient-11);
      }

      .cls-42 {
        fill: url(#linear-gradient-19);
      }

      .cls-43 {
        fill: url(#radial-gradient-12);
      }

      .cls-44 {
        fill: url(#linear-gradient-6);
      }

      .cls-45 {
        fill: url(#radial-gradient-15);
      }

      .cls-46 {
        fill: url(#linear-gradient-21);
      }

      .cls-47 {
        fill: url(#radial-gradient-6);
      }

      .cls-48 {
        fill: url(#linear-gradient-32);
      }

      .cls-49 {
        fill: url(#radial-gradient-7);
      }

      .cls-50 {
        fill: url(#linear-gradient-16);
      }

      .cls-51 {
        fill: url(#radial-gradient-17);
      }

      .cls-52 {
        fill: #b751bb;
      }

      .cls-53 {
        fill: url(#radial-gradient-13);
      }

      .cls-54 {
        fill: url(#linear-gradient);
      }

      .cls-55 {
        fill: url(#linear-gradient-23);
      }

      .cls-56 {
        fill: url(#linear-gradient-18);
      }
    </style>
    <linearGradient id="linear-gradient" x1="205.37" y1="84.86" x2="170.71" y2="65.54" gradientTransform="translate(-145.08 158.04) scale(1 -1)" gradientUnits="userSpaceOnUse">
      <stop offset="0" stop-color="gray"/>
      <stop offset="1" stop-color="#f2f2f2"/>
    </linearGradient>
    <linearGradient id="linear-gradient-2" x1="203.99" y1="111.85" x2="174.36" y2="95.35" gradientTransform="translate(-145.08 213.09) scale(1 -1)" xlink:href="#linear-gradient"/>
    <linearGradient id="linear-gradient-3" x1="203.03" y1="94.61" x2="176.61" y2="79.89" gradientTransform="translate(-145.08 179.84) scale(1 -1)" xlink:href="#linear-gradient"/>
    <radialGradient id="radial-gradient" cx="162.08" cy="121.91" fx="162.08" fy="121.91" r="8.36" gradientTransform="translate(262.87 27.65) rotate(-170.75) scale(1 -1)" gradientUnits="userSpaceOnUse">
      <stop offset="0" stop-color="#000"/>
      <stop offset=".24" stop-color="#000003"/>
      <stop offset=".47" stop-color="#00000f"/>
      <stop offset=".71" stop-color="#000123"/>
      <stop offset=".94" stop-color="#00023f"/>
      <stop offset=".99" stop-color="#000347"/>
    </radialGradient>
    <radialGradient id="radial-gradient-2" cx="161.99" cy="121.91" fx="161.99" fy="121.91" r="5.4" gradientTransform="translate(269.12 40.63) rotate(-166.67) scale(1 -1)" gradientUnits="userSpaceOnUse">
      <stop offset=".48" stop-color="#4d4d4d"/>
      <stop offset=".66" stop-color="#8f8f8f"/>
      <stop offset=".82" stop-color="#c4c4c4"/>
      <stop offset=".94" stop-color="#e5e5e5"/>
      <stop offset="1" stop-color="#f2f2f2"/>
    </radialGradient>
    <radialGradient id="radial-gradient-3" cx="161.99" cy="121.91" fx="161.99" fy="121.91" r="3.9" gradientTransform="translate(245.38) rotate(-180) scale(1 -1)" gradientUnits="userSpaceOnUse">
      <stop offset="0" stop-color="gray"/>
      <stop offset="1" stop-color="#f2f2f2"/>
    </radialGradient>
    <linearGradient id="linear-gradient-4" x1="159.64" y1="121.91" x2="164.34" y2="121.91" gradientTransform="translate(245.38) rotate(-180) scale(1 -1)" xlink:href="#linear-gradient"/>
    <radialGradient id="radial-gradient-4" cx="142.95" fx="142.95" gradientTransform="translate(263.12 24.57) rotate(-170.75) scale(1 -1)" xlink:href="#radial-gradient"/>
    <radialGradient id="radial-gradient-5" cx="142.87" fx="142.87" gradientTransform="translate(269.64 36.22) rotate(-166.67) scale(1 -1)" xlink:href="#radial-gradient-2"/>
    <radialGradient id="radial-gradient-6" cx="142.87" fx="142.87" r="3.9" xlink:href="#radial-gradient-3"/>
    <linearGradient id="linear-gradient-5" x1="140.51" y1="121.91" x2="145.22" y2="121.91" gradientTransform="translate(245.38) rotate(-180) scale(1 -1)" xlink:href="#linear-gradient"/>
    <linearGradient id="linear-gradient-6" x1="182.69" y1="119.95" x2="182.69" y2="114.78" gradientTransform="translate(-120 234.08) scale(1 -1)" gradientUnits="userSpaceOnUse">
      <stop offset="0" stop-color="#f2f2f2"/>
      <stop offset="1" stop-color="gray"/>
    </linearGradient>
    <linearGradient id="linear-gradient-7" x1="117.05" y1="114.41" x2="216.19" y2="118.03" gradientTransform="translate(245.38) rotate(-180) scale(1 -1)" gradientUnits="userSpaceOnUse">
      <stop offset="0" stop-color="#666"/>
      <stop offset=".16" stop-color="#757575"/>
      <stop offset=".47" stop-color="#9e9e9e"/>
      <stop offset=".89" stop-color="#e0e0e0"/>
      <stop offset="1" stop-color="#f2f2f2"/>
    </linearGradient>
    <radialGradient id="radial-gradient-7" cx="72.73" cy="123.11" fx="72.73" fy="123.11" r="6.18" gradientTransform="translate(311.13 87.48) rotate(-135) scale(1 -1)" xlink:href="#radial-gradient"/>
    <radialGradient id="radial-gradient-8" cx="72.66" cy="123.11" fx="72.66" fy="123.11" r="4" gradientTransform="translate(245.38) rotate(-180) scale(1 -1)" xlink:href="#radial-gradient-2"/>
    <radialGradient id="radial-gradient-9" cx="72.66" cy="123.11" fx="72.66" fy="123.11" r="2.89" xlink:href="#radial-gradient-3"/>
    <linearGradient id="linear-gradient-8" x1="70.92" y1="123.11" x2="74.4" y2="123.11" gradientTransform="translate(245.38) rotate(-180) scale(1 -1)" xlink:href="#linear-gradient"/>
    <radialGradient id="radial-gradient-10" cx="84.88" cy="123.11" fx="84.88" fy="123.11" r="6.18" gradientTransform="translate(271.3 22.69) rotate(-166.77) scale(1 -1)" xlink:href="#radial-gradient"/>
    <radialGradient id="radial-gradient-11" cx="84.82" cy="123.11" fx="84.82" fy="123.11" r="4" gradientTransform="translate(245.38) rotate(-180) scale(1 -1)" xlink:href="#radial-gradient-2"/>
    <radialGradient id="radial-gradient-12" cx="84.82" cy="123.11" fx="84.82" fy="123.11" r="2.89" xlink:href="#radial-gradient-3"/>
    <linearGradient id="linear-gradient-9" x1="83.08" y1="123.11" x2="86.56" y2="123.11" gradientTransform="translate(245.38) rotate(-180) scale(1 -1)" xlink:href="#linear-gradient"/>
    <radialGradient id="radial-gradient-13" cx="97.07" cy="123.11" fx="97.07" fy="123.11" r="6.18" gradientTransform="translate(304 104.7) rotate(-135) scale(1 -1)" xlink:href="#radial-gradient"/>
    <radialGradient id="radial-gradient-14" cx="97.01" cy="123.11" fx="97.01" fy="123.11" r="4" gradientTransform="translate(245.38) rotate(-180) scale(1 -1)" xlink:href="#radial-gradient-2"/>
    <radialGradient id="radial-gradient-15" cx="97.01" cy="123.11" fx="97.01" fy="123.11" r="2.89" xlink:href="#radial-gradient-3"/>
    <linearGradient id="linear-gradient-10" x1="95.27" y1="123.11" x2="98.74" y2="123.11" gradientTransform="translate(245.38) rotate(-180) scale(1 -1)" xlink:href="#linear-gradient"/>
    <linearGradient id="linear-gradient-11" x1="118.95" y1="121.35" x2="118.95" y2="79.08" gradientTransform="matrix(1,0,0,1,0,0)" xlink:href="#linear-gradient-7"/>
    <linearGradient id="linear-gradient-12" x1="119.23" y1="110.61" x2="118.05" y2="62.94" gradientUnits="userSpaceOnUse">
      <stop offset="0" stop-color="#9cb3c3"/>
      <stop offset=".97" stop-color="#f2f2f2"/>
    </linearGradient>
    <linearGradient id="linear-gradient-13" x1="63.53" y1="113.75" x2="63.53" y2="79.69" gradientTransform="matrix(1,0,0,1,0,0)" xlink:href="#linear-gradient"/>
    <linearGradient id="linear-gradient-14" x1="83.61" y1="113.75" x2="83.61" y2="79.69" gradientTransform="matrix(1,0,0,1,0,0)" xlink:href="#linear-gradient"/>
    <linearGradient id="linear-gradient-15" x1="103.7" y1="113.75" x2="103.7" y2="79.69" gradientTransform="matrix(1,0,0,1,0,0)" xlink:href="#linear-gradient"/>
    <linearGradient id="linear-gradient-16" x1="123.79" y1="113.75" x2="123.79" y2="79.69" gradientTransform="matrix(1,0,0,1,0,0)" xlink:href="#linear-gradient"/>
    <linearGradient id="linear-gradient-17" x1="143.87" y1="113.75" x2="143.87" y2="79.69" gradientTransform="matrix(1,0,0,1,0,0)" xlink:href="#linear-gradient"/>
    <linearGradient id="linear-gradient-18" x1="163.96" y1="113.75" x2="163.96" y2="79.69" gradientTransform="matrix(1,0,0,1,0,0)" xlink:href="#linear-gradient"/>
    <linearGradient id="linear-gradient-19" x1="180.61" y1="113.75" x2="180.61" y2="79.69" gradientTransform="matrix(1,0,0,1,0,0)" xlink:href="#linear-gradient"/>
    <linearGradient id="linear-gradient-20" x1="208.23" y1="114.31" x2="208.23" y2="129.11" gradientTransform="translate(-171.07 238.95) scale(1 -1)" gradientUnits="userSpaceOnUse">
      <stop offset="0" stop-color="#4c0000"/>
      <stop offset=".02" stop-color="#4f0101"/>
      <stop offset=".23" stop-color="#770e10"/>
      <stop offset=".44" stop-color="#97191d"/>
      <stop offset=".64" stop-color="#ae2025"/>
      <stop offset=".83" stop-color="#bc252b"/>
      <stop offset="1" stop-color="#c1272d"/>
    </linearGradient>
    <linearGradient id="linear-gradient-21" x1="228.81" y1="117.47" x2="230.01" y2="117.47" gradientTransform="translate(-213.74 234.93) scale(1 -1)" gradientUnits="userSpaceOnUse">
      <stop offset="0" stop-color="gray"/>
      <stop offset=".16" stop-color="#858585"/>
      <stop offset=".36" stop-color="#949494"/>
      <stop offset=".58" stop-color="#aeaeae"/>
      <stop offset=".82" stop-color="#d1d1d1"/>
      <stop offset="1" stop-color="#f2f2f2"/>
    </linearGradient>
    <linearGradient id="linear-gradient-22" x1="208.95" y1="104.88" x2="230.76" y2="98.58" gradientTransform="translate(245.38) rotate(-180) scale(1 -1)" gradientUnits="userSpaceOnUse">
      <stop offset="0" stop-color="#c1272d"/>
      <stop offset=".17" stop-color="#d13629"/>
      <stop offset=".48" stop-color="#e94d24"/>
      <stop offset=".77" stop-color="#f85c21"/>
      <stop offset="1" stop-color="#fe6120"/>
    </linearGradient>
    <linearGradient id="linear-gradient-23" x1="223.79" y1="122.98" x2="231.62" y2="122.98" gradientTransform="translate(-206.87 245.96) scale(1 -1)" xlink:href="#linear-gradient-21"/>
    <linearGradient id="linear-gradient-24" x1="194.88" y1="109.49" x2="213.27" y2="99.99" gradientTransform="translate(245.38) rotate(-180) scale(1 -1)" gradientUnits="userSpaceOnUse">
      <stop offset="0" stop-color="#c1272d"/>
      <stop offset="1" stop-color="#fe6120"/>
    </linearGradient>
    <linearGradient id="linear-gradient-25" x1="203.99" y1="95.78" x2="215.33" y2="95.78" gradientTransform="translate(245.38) rotate(-180) scale(1 -1)" gradientUnits="userSpaceOnUse">
      <stop offset="0" stop-color="#000"/>
      <stop offset="1" stop-color="#666"/>
    </linearGradient>
    <linearGradient id="linear-gradient-26" x1="204.6" y1="95.85" y2="95.85" xlink:href="#linear-gradient-25"/>
    <linearGradient id="linear-gradient-27" x1="50.66" y1="133.19" x2="51.95" y2="133.19" gradientTransform="translate(-19.23 -88.58) scale(.94 1.39)" xlink:href="#linear-gradient"/>
    <radialGradient id="radial-gradient-16" cx="207.45" cy="122.84" fx="207.45" fy="122.84" r="9.11" gradientTransform="translate(271.48 182.67) rotate(-135) scale(1 -1)" xlink:href="#radial-gradient"/>
    <radialGradient id="radial-gradient-17" cx="207.36" cy="122.84" fx="207.36" fy="122.84" r="5.89" gradientTransform="translate(267.99 50.72) rotate(-166.77) scale(1 -1)" xlink:href="#radial-gradient-2"/>
    <radialGradient id="radial-gradient-18" cx="207.36" cy="122.84" fx="207.36" fy="122.84" r="4.25" xlink:href="#radial-gradient-3"/>
    <linearGradient id="linear-gradient-28" x1="204.79" y1="122.84" x2="209.92" y2="122.84" gradientTransform="translate(245.38) rotate(-180) scale(1 -1)" xlink:href="#linear-gradient"/>
    <linearGradient id="linear-gradient-29" x1="195.17" y1="117.91" x2="226.39" y2="117.91" gradientTransform="translate(245.38) rotate(-180) scale(1 -1)" gradientUnits="userSpaceOnUse">
      <stop offset="0" stop-color="#c1272d"/>
      <stop offset="1" stop-color="#fe6120"/>
    </linearGradient>
    <linearGradient id="linear-gradient-30" x1="221.17" y1="96.66" x2="228.66" y2="96.66" xlink:href="#linear-gradient-25"/>
    <linearGradient id="linear-gradient-31" x1="224.23" y1="97.85" x2="228.35" y2="97.85" xlink:href="#linear-gradient-25"/>
    <linearGradient id="linear-gradient-32" x1="220.25" y1="117.47" x2="225.96" y2="117.47" gradientTransform="translate(245.38) rotate(-180) scale(1 -1)" xlink:href="#linear-gradient"/>
    <linearGradient id="linear-gradient-33" x1="195.04" y1="82.41" x2="216.17" y2="82.41" gradientTransform="translate(-165.83 164.83) scale(1 -1)" xlink:href="#linear-gradient-24"/>
    <linearGradient id="linear-gradient-34" x1="230.08" y1="123.36" x2="231.52" y2="122.94" gradientTransform="translate(-216.07 246.34) scale(1 -1)" xlink:href="#linear-gradient-21"/>
    <linearGradient id="linear-gradient-35" x1="222.94" y1="110.32" x2="227.76" y2="110.32" gradientTransform="translate(245.38) rotate(-180) scale(1 -1)" xlink:href="#linear-gradient-21"/>
  </defs>
  <g class="cls-28">
    <g id="Capa_1" data-name="Capa 1">
      <g>
        <g>
          <path class="cls-54" d="M49.26,66.15h1.77v24.87c0,.49-.4.89-.89.89h0c-.49,0-.89-.4-.89-.89v-24.87h0Z" transform="translate(100.3 158.04) rotate(180)"/>
          <path class="cls-5" d="M47.65,98.17h5v14.67c0,1.15-.93,2.08-2.08,2.08h-.83c-1.15,0-2.08-.93-2.08-2.08v-14.67h0Z" transform="translate(100.3 213.09) rotate(180)"/>
          <path class="cls-23" d="M48.46,81.55h3.37v15.06c0,.93-.76,1.69-1.69,1.69h0c-.93,0-1.69-.76-1.69-1.69v-15.06h0Z" transform="translate(100.3 179.84) rotate(180)"/>
        </g>
        <g>
          <circle class="cls-21" cx="83.3" cy="121.91" r="8.36" transform="translate(-18.52 14.98) rotate(-9.25)"/>
          <circle class="cls-33" cx="83.39" cy="121.91" r="5.4" transform="translate(-25.86 22.51) rotate(-13.33)"/>
          <path class="cls-22" d="M79.49,121.91c0,2.16,1.75,3.9,3.9,3.9s3.9-1.75,3.9-3.9-1.75-3.9-3.9-3.9-3.9,1.75-3.9,3.9ZM80.19,120.54c.08.03.12.11.09.19-.07.18-.12.37-.16.56-.01.07-.08.12-.15.12,0,0-.02,0-.03,0-.08-.02-.13-.09-.12-.17.04-.21.1-.41.17-.61.03-.08.11-.12.19-.09ZM81.75,119.01c-.17.1-.33.21-.48.33-.03.02-.06.03-.09.03-.04,0-.09-.02-.11-.05-.05-.06-.04-.16.02-.21.16-.13.34-.25.52-.36.07-.04.16-.02.2.06.04.07.02.16-.06.2ZM82.97,118.45c.01.08-.04.16-.12.17-.19.03-.38.08-.56.15-.02,0-.03,0-.05,0-.06,0-.12-.04-.14-.1-.03-.08.01-.16.09-.19.2-.07.4-.12.61-.16.08-.01.16.04.17.12ZM84.17,118.51c-.01.07-.08.12-.15.12,0,0-.02,0-.03,0-.19-.03-.38-.05-.58-.06-.08,0-.15-.07-.15-.15,0-.08.07-.15.15-.15h0c.21,0,.42.02.63.06.08.02.13.09.12.17ZM85.28,118.98s-.08.07-.13.07c-.03,0-.05,0-.08-.02-.16-.1-.34-.18-.52-.25-.08-.03-.12-.11-.09-.19.03-.08.11-.12.19-.09.2.07.39.17.57.27.07.04.09.13.05.2ZM86.17,119.8s-.06.03-.09.03c-.04,0-.09-.02-.11-.05-.12-.15-.26-.29-.41-.41-.06-.05-.07-.15-.02-.21.05-.06.15-.07.21-.02.16.14.31.29.44.45.05.06.04.16-.02.21ZM86.81,120.69c.03.08-.01.16-.09.19-.02,0-.03,0-.05,0-.06,0-.12-.04-.14-.1-.07-.18-.15-.36-.24-.53-.04-.07-.02-.16.06-.2.07-.04.16-.02.2.06.1.18.19.37.26.57ZM86.87,122.07c-.08,0-.15-.08-.15-.16,0-.19-.02-.38-.05-.56-.01-.08.04-.16.12-.17.08-.01.16.04.17.12.03.2.05.4.05.61v.02c0,.08-.07.14-.15.14ZM86.6,123.25c-.08-.03-.12-.11-.09-.19.07-.18.12-.37.15-.56.02-.08.09-.13.17-.12.08.02.13.09.12.17-.04.21-.1.41-.17.61-.02.06-.08.1-.14.1-.02,0-.03,0-.05,0ZM85.93,124.06c.13-.15.24-.31.33-.47.04-.07.13-.09.2-.05.07.04.09.13.05.2-.1.18-.23.35-.36.52-.03.03-.07.05-.11.05-.03,0-.07-.01-.1-.03-.06-.05-.07-.15-.02-.21ZM85.04,124.8c.17-.1.33-.21.48-.33.06-.05.16-.05.21.02.05.06.04.16-.02.21-.16.14-.34.26-.52.36-.02.01-.05.02-.07.02-.05,0-.1-.03-.13-.07-.04-.07-.02-.16.06-.2ZM83.84,125.36c-.01-.08.04-.16.12-.17.19-.03.38-.08.56-.15.08-.03.16.01.19.09.03.08-.01.16-.09.19-.2.07-.4.13-.61.16,0,0-.02,0-.03,0-.07,0-.13-.05-.15-.12ZM82.63,125.3c.01-.08.09-.13.17-.12.19.03.38.05.58.05.08,0,.15.07.15.15,0,.08-.07.15-.15.15h0c-.21,0-.42-.02-.63-.06-.08-.01-.13-.09-.12-.17ZM81.52,124.84c.04-.07.13-.1.2-.05.17.1.34.18.52.25.08.03.12.11.09.19-.02.06-.08.1-.14.1-.02,0-.03,0-.05,0-.2-.07-.39-.16-.57-.27-.07-.04-.1-.13-.05-.2ZM80.63,124.02c.06-.05.16-.04.21.02.12.15.26.28.41.41.06.05.07.15.02.21-.03.03-.07.05-.11.05-.03,0-.07-.01-.1-.03-.16-.14-.31-.29-.44-.45-.05-.06-.04-.16.02-.21ZM80.53,120.21s-.08.07-.13.07c-.03,0-.05,0-.08-.02-.07-.04-.09-.13-.05-.2.11-.18.23-.35.37-.51.05-.06.15-.07.21-.02.06.05.07.15.02.21-.13.15-.24.3-.34.47ZM79.98,123.14c-.03-.08.01-.16.09-.19.08-.03.16.01.19.09.07.18.15.36.24.52.04.07.02.16-.05.2-.02.01-.05.02-.07.02-.05,0-.1-.03-.13-.07-.11-.18-.2-.37-.27-.57ZM79.76,121.91v-.04c0-.08.07-.15.15-.15s.15.07.15.15v.04c0,.19.02.39.05.58.01.08-.04.16-.12.17,0,0-.02,0-.03,0-.07,0-.13-.05-.15-.12-.04-.21-.05-.42-.05-.63Z"/>
          <path class="cls-17" d="M81.04,121.91c0,1.3,1.05,2.35,2.35,2.35s2.35-1.05,2.35-2.35-1.05-2.35-2.35-2.35-2.35,1.05-2.35,2.35Z"/>
        </g>
        <g>
          <circle class="cls-37" cx="102.42" cy="121.91" r="8.36" transform="translate(-18.27 18.06) rotate(-9.25)"/>
          <circle class="cls-18" cx="102.51" cy="121.91" r="5.4" transform="translate(-25.34 26.92) rotate(-13.33)"/>
          <path class="cls-47" d="M98.61,121.91c0,2.16,1.75,3.9,3.9,3.9s3.9-1.75,3.9-3.9-1.75-3.9-3.9-3.9-3.9,1.75-3.9,3.9ZM99.31,120.54c.08.03.12.11.09.19-.07.18-.12.37-.16.56-.01.07-.08.12-.15.12,0,0-.02,0-.03,0-.08-.02-.13-.09-.12-.17.04-.21.1-.41.17-.61.03-.08.11-.12.19-.09ZM100.88,119.01c-.17.1-.33.21-.48.33-.03.02-.06.03-.09.03-.04,0-.09-.02-.11-.05-.05-.06-.04-.16.02-.21.16-.13.34-.25.52-.36.07-.04.16-.02.2.06.04.07.02.16-.06.2ZM102.09,118.45c.01.08-.04.16-.12.17-.19.03-.38.08-.56.15-.02,0-.03,0-.05,0-.06,0-.12-.04-.14-.1-.03-.08.01-.16.09-.19.2-.07.4-.12.61-.16.08-.01.16.04.17.12ZM103.29,118.51c-.01.07-.08.12-.15.12,0,0-.02,0-.03,0-.19-.03-.38-.05-.58-.06-.08,0-.15-.07-.15-.15,0-.08.07-.15.15-.15h0c.21,0,.42.02.63.06.08.02.13.09.12.17ZM104.4,118.98s-.08.07-.13.07c-.03,0-.05,0-.08-.02-.16-.1-.34-.18-.52-.25-.08-.03-.12-.11-.09-.19.03-.08.11-.12.19-.09.2.07.39.17.57.27.07.04.09.13.05.2ZM105.29,119.8s-.06.03-.09.03c-.04,0-.09-.02-.11-.05-.12-.15-.26-.29-.41-.41-.06-.05-.07-.15-.02-.21.05-.06.15-.07.21-.02.16.14.31.29.44.45.05.06.04.16-.02.21ZM105.93,120.69c.03.08-.01.16-.09.19-.02,0-.03,0-.05,0-.06,0-.12-.04-.14-.1-.07-.18-.15-.36-.24-.53-.04-.07-.02-.16.06-.2.07-.04.16-.02.2.06.1.18.19.37.26.57ZM105.99,122.07c-.08,0-.15-.08-.15-.16,0-.19-.02-.38-.05-.56-.01-.08.04-.16.12-.17.08-.01.16.04.17.12.03.2.05.4.05.61v.02c0,.08-.07.14-.15.14ZM105.72,123.25c-.08-.03-.12-.11-.09-.19.07-.18.12-.37.15-.56.02-.08.09-.13.17-.12.08.02.13.09.12.17-.04.21-.1.41-.17.61-.02.06-.08.1-.14.1-.02,0-.03,0-.05,0ZM105.05,124.06c.13-.15.24-.31.33-.47.04-.07.13-.09.2-.05.07.04.09.13.05.2-.1.18-.23.35-.36.52-.03.03-.07.05-.11.05-.03,0-.07-.01-.1-.03-.06-.05-.07-.15-.02-.21ZM104.17,124.8c.17-.1.33-.21.48-.33.06-.05.16-.05.21.02.05.06.04.16-.02.21-.16.14-.34.26-.52.36-.02.01-.05.02-.07.02-.05,0-.1-.03-.13-.07-.04-.07-.02-.16.06-.2ZM102.96,125.36c-.01-.08.04-.16.12-.17.19-.03.38-.08.56-.15.08-.03.16.01.19.09.03.08-.01.16-.09.19-.2.07-.4.13-.61.16,0,0-.02,0-.03,0-.07,0-.13-.05-.15-.12ZM101.75,125.3c.01-.08.09-.13.17-.12.19.03.38.05.58.05.08,0,.15.07.15.15,0,.08-.07.15-.15.15h0c-.21,0-.42-.02-.63-.06-.08-.01-.13-.09-.12-.17ZM100.64,124.84c.04-.07.13-.1.2-.05.17.1.34.18.52.25.08.03.12.11.09.19-.02.06-.08.1-.14.1-.02,0-.03,0-.05,0-.2-.07-.39-.16-.57-.27-.07-.04-.1-.13-.05-.2ZM99.75,124.02c.06-.05.16-.04.21.02.12.15.26.28.41.41.06.05.07.15.02.21-.03.03-.07.05-.11.05-.03,0-.07-.01-.1-.03-.16-.14-.31-.29-.44-.45-.05-.06-.04-.16.02-.21ZM99.65,120.21s-.08.07-.13.07c-.03,0-.05,0-.08-.02-.07-.04-.09-.13-.05-.2.11-.18.23-.35.37-.51.05-.06.15-.07.21-.02.06.05.07.15.02.21-.13.15-.24.3-.34.47ZM99.1,123.14c-.03-.08.01-.16.09-.19.08-.03.16.01.19.09.07.18.15.36.24.52.04.07.02.16-.05.2-.02.01-.05.02-.07.02-.05,0-.1-.03-.13-.07-.11-.18-.2-.37-.27-.57ZM98.89,121.91v-.04c0-.08.07-.15.15-.15s.15.07.15.15v.04c0,.19.02.39.05.58.01.08-.04.16-.12.17,0,0-.02,0-.03,0-.07,0-.13-.05-.15-.12-.04-.21-.05-.42-.05-.63Z"/>
          <path class="cls-25" d="M100.16,121.91c0,1.3,1.05,2.35,2.35,2.35s2.35-1.05,2.35-2.35-1.05-2.35-2.35-2.35-2.35,1.05-2.35,2.35Z"/>
        </g>
        <path class="cls-44" d="M49.9,114.97h27.65v4.14h-27.65c-1.14,0-2.07-.93-2.07-2.07h0c0-1.14.93-2.07,2.07-2.07Z" transform="translate(125.38 234.08) rotate(-180)"/>
        <path class="cls-39" d="M53.16,115.75h131.86c.55,0,1-.45,1-1h0c0-.55-.45-1-1-1H53.16c-.55,0-1,.45-1,1h0c0,.55.45,1,1,1Z"/>
        <path class="cls-14" d="M184.53,115.75h-80.84c3.14,0,5.82,2.38,6.93,5.75h73.91v-5.75Z"/>
        <path class="cls-52" d="M84.42,115.75l.05.03c.25-.02.5-.03.76-.03h-.81Z"/>
        <g>
          <circle class="cls-49" cx="172.65" cy="123.11" r="6.18" transform="translate(-36.48 158.14) rotate(-45)"/>
          <path class="cls-32" d="M168.72,123.11c0,2.21,1.79,4,4,4s4-1.79,4-4-1.79-4-4-4-4,1.79-4,4Z"/>
          <path class="cls-6" d="M169.83,123.11c0,1.59,1.29,2.89,2.89,2.89s2.89-1.29,2.89-2.89-1.29-2.89-2.89-2.89-2.89,1.29-2.89,2.89ZM170.35,122.1c.06.02.09.08.06.14-.05.13-.09.27-.12.41,0,.05-.06.09-.11.09,0,0-.01,0-.02,0-.06-.01-.1-.07-.09-.13.03-.15.07-.3.13-.45.02-.06.08-.09.14-.06ZM171.5,120.96c-.12.07-.24.15-.35.24-.02.02-.04.02-.07.02-.03,0-.06-.01-.08-.04-.04-.05-.03-.12.02-.15.12-.1.25-.19.38-.26.05-.03.12-.01.15.04.03.05.01.12-.04.15ZM172.4,120.55c.01.06-.03.12-.09.13-.14.02-.28.06-.42.11-.01,0-.02,0-.04,0-.05,0-.09-.03-.1-.07-.02-.06.01-.12.07-.14.15-.05.3-.09.45-.12.06,0,.12.03.13.09ZM173.29,120.6c-.01.05-.06.09-.11.09,0,0-.01,0-.02,0-.14-.03-.28-.04-.43-.04-.06,0-.11-.05-.11-.11,0-.06.05-.11.11-.11h0c.16,0,.31.02.46.04.06.01.1.07.09.13ZM174.11,120.95s-.06.05-.09.05c-.02,0-.04,0-.06-.02-.12-.07-.25-.13-.39-.18-.06-.02-.09-.08-.06-.14.02-.06.08-.09.14-.06.15.05.29.12.42.2.05.03.07.1.04.15ZM174.77,121.55s-.05.02-.07.02c-.03,0-.06-.01-.08-.04-.09-.11-.19-.21-.3-.3-.05-.04-.05-.11-.01-.16.04-.05.11-.05.16-.01.12.1.23.21.33.33.04.05.03.12-.01.16ZM175.24,122.21c.02.06,0,.12-.07.14-.01,0-.02,0-.04,0-.05,0-.09-.03-.1-.07-.05-.14-.11-.27-.18-.39-.03-.05-.01-.12.04-.15.05-.03.12-.01.15.04.08.13.14.28.19.42ZM175.29,123.22c-.06,0-.11-.06-.11-.12,0-.14-.01-.28-.03-.41-.01-.06.03-.12.09-.13.06,0,.12.03.13.09.02.15.04.3.04.45v.02c0,.06-.05.1-.11.1ZM175.09,124.1c-.06-.02-.09-.08-.06-.14.05-.13.09-.27.11-.41.01-.06.06-.1.13-.09.06.01.1.07.09.13-.03.16-.07.31-.12.45-.02.04-.06.07-.1.07-.01,0-.03,0-.04,0ZM174.59,124.7c.09-.11.18-.23.25-.35.03-.05.1-.07.15-.04.05.03.07.1.04.15-.08.13-.17.26-.27.38-.02.03-.05.04-.08.04-.03,0-.05,0-.07-.03-.05-.04-.05-.11-.01-.16ZM173.94,125.24c.12-.07.24-.15.35-.24.05-.04.12-.03.15.01.04.05.03.12-.01.15-.12.1-.25.19-.38.27-.02,0-.04.01-.05.01-.04,0-.08-.02-.1-.06-.03-.05-.01-.12.04-.15ZM173.05,125.66c-.01-.06.03-.12.09-.13.14-.02.28-.06.41-.11.06-.02.12,0,.14.07.02.06,0,.12-.07.14-.15.05-.3.09-.45.12,0,0-.01,0-.02,0-.05,0-.1-.04-.11-.09ZM172.15,125.62c.01-.06.06-.1.13-.09.14.02.28.04.43.04.06,0,.11.05.11.11,0,.06-.05.11-.11.11h0c-.16,0-.31-.01-.46-.04-.06-.01-.1-.07-.09-.13ZM171.33,125.28c.03-.05.1-.07.15-.04.12.07.25.13.39.18.06.02.09.08.07.14-.02.04-.06.07-.1.07-.01,0-.03,0-.04,0-.15-.05-.29-.12-.42-.2-.05-.03-.07-.1-.04-.15ZM170.67,124.67s.12-.03.16.01c.09.11.19.21.3.3.05.04.05.11.01.16-.02.03-.05.04-.08.04-.03,0-.05,0-.07-.03-.12-.1-.23-.21-.33-.33-.04-.05-.03-.12.01-.16ZM170.6,121.85s-.06.05-.09.05c-.02,0-.04,0-.06-.02-.05-.03-.07-.1-.04-.15.08-.13.17-.26.27-.38.04-.05.11-.05.16-.01.05.04.05.11.01.16-.09.11-.18.23-.25.35ZM170.19,124.02c-.02-.06,0-.12.07-.14.06-.02.12,0,.14.07.05.13.11.26.18.39.03.05.01.12-.04.15-.02.01-.04.01-.06.01-.04,0-.07-.02-.1-.05-.08-.13-.14-.28-.2-.42ZM170.03,123.11v-.03c0-.06.05-.11.11-.11s.11.05.11.11v.03c0,.14.01.29.04.43.01.06-.03.12-.09.13,0,0-.01,0-.02,0-.05,0-.1-.04-.11-.09-.03-.15-.04-.31-.04-.46Z"/>
          <path class="cls-31" d="M170.98,123.11c0,.96.78,1.74,1.74,1.74s1.74-.78,1.74-1.74-.78-1.74-1.74-1.74-1.74.78-1.74,1.74Z"/>
        </g>
        <g>
          <circle class="cls-1" cx="160.5" cy="123.11" r="6.18" transform="translate(-23.91 40) rotate(-13.23)"/>
          <path class="cls-29" d="M156.56,123.11c0,2.21,1.79,4,4,4s4-1.79,4-4-1.79-4-4-4-4,1.79-4,4Z"/>
          <path class="cls-43" d="M157.68,123.11c0,1.59,1.29,2.89,2.89,2.89s2.89-1.29,2.89-2.89-1.29-2.89-2.89-2.89-2.89,1.29-2.89,2.89ZM158.19,122.1c.06.02.09.08.06.14-.05.13-.09.27-.12.41,0,.05-.06.09-.11.09,0,0-.01,0-.02,0-.06-.01-.1-.07-.09-.13.03-.15.07-.3.13-.45.02-.06.08-.09.14-.06ZM159.35,120.96c-.12.07-.24.15-.35.24-.02.02-.04.02-.07.02-.03,0-.06-.01-.08-.04-.04-.05-.03-.12.02-.15.12-.1.25-.19.38-.26.05-.03.12-.01.15.04.03.05.01.12-.04.15ZM160.25,120.55c.01.06-.03.12-.09.13-.14.02-.28.06-.42.11-.01,0-.02,0-.04,0-.05,0-.09-.03-.1-.07-.02-.06.01-.12.07-.14.15-.05.3-.09.45-.12.06,0,.12.03.13.09ZM161.14,120.6c-.01.05-.06.09-.11.09,0,0-.01,0-.02,0-.14-.03-.28-.04-.43-.04-.06,0-.11-.05-.11-.11,0-.06.05-.11.11-.11h0c.16,0,.31.02.46.04.06.01.1.07.09.13ZM161.96,120.95s-.06.05-.09.05c-.02,0-.04,0-.06-.02-.12-.07-.25-.13-.39-.18-.06-.02-.09-.08-.06-.14.02-.06.08-.09.14-.06.15.05.29.12.42.2.05.03.07.1.04.15ZM162.61,121.55s-.05.02-.07.02c-.03,0-.06-.01-.08-.04-.09-.11-.19-.21-.3-.3-.05-.04-.05-.11-.01-.16.04-.05.11-.05.16-.01.12.1.23.21.33.33.04.05.03.12-.01.16ZM163.09,122.21c.02.06,0,.12-.07.14-.01,0-.02,0-.04,0-.05,0-.09-.03-.1-.07-.05-.14-.11-.27-.18-.39-.03-.05-.01-.12.04-.15.05-.03.12-.01.15.04.08.13.14.28.19.42ZM163.13,123.22c-.06,0-.11-.06-.11-.12,0-.14-.01-.28-.03-.41-.01-.06.03-.12.09-.13.06,0,.12.03.13.09.02.15.04.3.04.45v.02c0,.06-.05.1-.11.1ZM162.94,124.1c-.06-.02-.09-.08-.06-.14.05-.13.09-.27.11-.41.01-.06.06-.1.13-.09.06.01.1.07.09.13-.03.16-.07.31-.12.45-.02.04-.06.07-.1.07-.01,0-.03,0-.04,0ZM162.44,124.7c.09-.11.18-.23.25-.35.03-.05.1-.07.15-.04.05.03.07.1.04.15-.08.13-.17.26-.27.38-.02.03-.05.04-.08.04-.03,0-.05,0-.07-.03-.05-.04-.05-.11-.01-.16ZM161.79,125.24c.12-.07.24-.15.35-.24.05-.04.12-.03.15.01.04.05.03.12-.01.15-.12.1-.25.19-.38.27-.02,0-.04.01-.05.01-.04,0-.08-.02-.1-.06-.03-.05-.01-.12.04-.15ZM160.89,125.66c-.01-.06.03-.12.09-.13.14-.02.28-.06.41-.11.06-.02.12,0,.14.07.02.06,0,.12-.07.14-.15.05-.3.09-.45.12,0,0-.01,0-.02,0-.05,0-.1-.04-.11-.09ZM160,125.62c.01-.06.06-.1.13-.09.14.02.28.04.43.04.06,0,.11.05.11.11,0,.06-.05.11-.11.11h0c-.16,0-.31-.01-.46-.04-.06-.01-.1-.07-.09-.13ZM159.18,125.28c.03-.05.1-.07.15-.04.12.07.25.13.39.18.06.02.09.08.07.14-.02.04-.06.07-.1.07-.01,0-.03,0-.04,0-.15-.05-.29-.12-.42-.2-.05-.03-.07-.1-.04-.15ZM158.52,124.67s.12-.03.16.01c.09.11.19.21.3.3.05.04.05.11.01.16-.02.03-.05.04-.08.04-.03,0-.05,0-.07-.03-.12-.1-.23-.21-.33-.33-.04-.05-.03-.12.01-.16ZM158.44,121.85s-.06.05-.09.05c-.02,0-.04,0-.06-.02-.05-.03-.07-.1-.04-.15.08-.13.17-.26.27-.38.04-.05.11-.05.16-.01.05.04.05.11.01.16-.09.11-.18.23-.25.35ZM158.04,124.02c-.02-.06,0-.12.07-.14.06-.02.12,0,.14.07.05.13.11.26.18.39.03.05.01.12-.04.15-.02.01-.04.01-.06.01-.04,0-.07-.02-.1-.05-.08-.13-.14-.28-.2-.42ZM157.88,123.11v-.03c0-.06.05-.11.11-.11s.11.05.11.11v.03c0,.14.01.29.04.43.01.06-.03.12-.09.13,0,0-.01,0-.02,0-.05,0-.1-.04-.11-.09-.03-.15-.04-.31-.04-.46Z"/>
          <path class="cls-40" d="M158.82,123.11c0,.96.78,1.74,1.74,1.74s1.74-.78,1.74-1.74-.78-1.74-1.74-1.74-1.74.78-1.74,1.74Z"/>
        </g>
        <g>
          <circle class="cls-53" cx="148.31" cy="123.11" r="6.18" transform="translate(-43.61 140.93) rotate(-45)"/>
          <path class="cls-13" d="M144.38,123.11c0,2.21,1.79,4,4,4s4-1.79,4-4-1.79-4-4-4-4,1.79-4,4Z"/>
          <path class="cls-45" d="M145.49,123.11c0,1.59,1.29,2.89,2.89,2.89s2.89-1.29,2.89-2.89-1.29-2.89-2.89-2.89-2.89,1.29-2.89,2.89ZM146,122.1c.06.02.09.08.06.14-.05.13-.09.27-.12.41,0,.05-.06.09-.11.09,0,0-.01,0-.02,0-.06-.01-.1-.07-.09-.13.03-.15.07-.3.13-.45.02-.06.08-.09.14-.06ZM147.16,120.96c-.12.07-.24.15-.35.24-.02.02-.04.02-.07.02-.03,0-.06-.01-.08-.04-.04-.05-.03-.12.02-.15.12-.1.25-.19.38-.26.05-.03.12-.01.15.04.03.05.01.12-.04.15ZM148.06,120.55c.01.06-.03.12-.09.13-.14.02-.28.06-.42.11-.01,0-.02,0-.04,0-.05,0-.09-.03-.1-.07-.02-.06.01-.12.07-.14.15-.05.3-.09.45-.12.06,0,.12.03.13.09ZM148.95,120.6c-.01.05-.06.09-.11.09,0,0-.01,0-.02,0-.14-.03-.28-.04-.43-.04-.06,0-.11-.05-.11-.11,0-.06.05-.11.11-.11h0c.16,0,.31.02.46.04.06.01.1.07.09.13ZM149.77,120.95s-.06.05-.09.05c-.02,0-.04,0-.06-.02-.12-.07-.25-.13-.39-.18-.06-.02-.09-.08-.06-.14.02-.06.08-.09.14-.06.15.05.29.12.42.2.05.03.07.1.04.15ZM150.43,121.55s-.05.02-.07.02c-.03,0-.06-.01-.08-.04-.09-.11-.19-.21-.3-.3-.05-.04-.05-.11-.01-.16.04-.05.11-.05.16-.01.12.1.23.21.33.33.04.05.03.12-.01.16ZM150.9,122.21c.02.06,0,.12-.07.14-.01,0-.02,0-.04,0-.05,0-.09-.03-.1-.07-.05-.14-.11-.27-.18-.39-.03-.05-.01-.12.04-.15.05-.03.12-.01.15.04.08.13.14.28.19.42ZM150.95,123.22c-.06,0-.11-.06-.11-.12,0-.14-.01-.28-.03-.41-.01-.06.03-.12.09-.13.06,0,.12.03.13.09.02.15.04.3.04.45v.02c0,.06-.05.1-.11.1ZM150.75,124.1c-.06-.02-.09-.08-.06-.14.05-.13.09-.27.11-.41.01-.06.06-.1.13-.09.06.01.1.07.09.13-.03.16-.07.31-.12.45-.02.04-.06.07-.1.07-.01,0-.03,0-.04,0ZM150.25,124.7c.09-.11.18-.23.25-.35.03-.05.1-.07.15-.04.05.03.07.1.04.15-.08.13-.17.26-.27.38-.02.03-.05.04-.08.04-.03,0-.05,0-.07-.03-.05-.04-.05-.11-.01-.16ZM149.6,125.24c.12-.07.24-.15.35-.24.05-.04.12-.03.15.01.04.05.03.12-.01.15-.12.1-.25.19-.38.27-.02,0-.04.01-.05.01-.04,0-.08-.02-.1-.06-.03-.05-.01-.12.04-.15ZM148.7,125.66c-.01-.06.03-.12.09-.13.14-.02.28-.06.41-.11.06-.02.12,0,.14.07.02.06,0,.12-.07.14-.15.05-.3.09-.45.12,0,0-.01,0-.02,0-.05,0-.1-.04-.11-.09ZM147.81,125.62c.01-.06.06-.1.13-.09.14.02.28.04.43.04.06,0,.11.05.11.11,0,.06-.05.11-.11.11h0c-.16,0-.31-.01-.46-.04-.06-.01-.1-.07-.09-.13ZM146.99,125.28c.03-.05.1-.07.15-.04.12.07.25.13.39.18.06.02.09.08.07.14-.02.04-.06.07-.1.07-.01,0-.03,0-.04,0-.15-.05-.29-.12-.42-.2-.05-.03-.07-.1-.04-.15ZM146.33,124.67s.12-.03.16.01c.09.11.19.21.3.3.05.04.05.11.01.16-.02.03-.05.04-.08.04-.03,0-.05,0-.07-.03-.12-.1-.23-.21-.33-.33-.04-.05-.03-.12.01-.16ZM146.25,121.85s-.06.05-.09.05c-.02,0-.04,0-.06-.02-.05-.03-.07-.1-.04-.15.08-.13.17-.26.27-.38.04-.05.11-.05.16-.01.05.04.05.11.01.16-.09.11-.18.23-.25.35ZM145.85,124.02c-.02-.06,0-.12.07-.14.06-.02.12,0,.14.07.05.13.11.26.18.39.03.05.01.12-.04.15-.02.01-.04.01-.06.01-.04,0-.07-.02-.1-.05-.08-.13-.14-.28-.2-.42ZM145.69,123.11v-.03c0-.06.05-.11.11-.11s.11.05.11.11v.03c0,.14.01.29.04.43.01.06-.03.12-.09.13,0,0-.01,0-.02,0-.05,0-.1-.04-.11-.09-.03-.15-.04-.31-.04-.46Z"/>
          <path class="cls-11" d="M146.63,123.11c0,.96.78,1.74,1.74,1.74s1.74-.78,1.74-1.74-.78-1.74-1.74-1.74-1.74.78-1.74,1.74Z"/>
        </g>
        <g>
          <rect class="cls-41" x="52.16" y="82.15" width="133.58" height="31.6" rx="5.02" ry="5.02"/>
          <path class="cls-10" d="M52.16,90.83v17.23c0,2.77,2.25,5.02,5.02,5.02h123.54c2.77,0,5.02-2.25,5.02-5.02v-17.23H52.16Z"/>
          <g>
            <rect class="cls-3" x="62.69" y="81.38" width="1.67" height="32.37"/>
            <rect class="cls-34" x="82.78" y="81.38" width="1.67" height="32.37"/>
            <rect class="cls-2" x="102.87" y="81.38" width="1.67" height="32.37"/>
            <rect class="cls-50" x="122.95" y="81.38" width="1.67" height="32.37"/>
            <rect class="cls-38" x="143.04" y="81.38" width="1.67" height="32.37"/>
            <rect class="cls-56" x="163.13" y="81.38" width="1.67" height="32.37"/>
            <rect class="cls-42" x="179.77" y="81.38" width="1.67" height="32.37"/>
          </g>
        </g>
        <g>
          <path class="cls-36" d="M34.51,113.37h5.28c5.27,0,9.55,4.28,9.55,9.55v2.66h-24.38v-2.66c0-5.27,4.28-9.55,9.55-9.55Z" transform="translate(74.31 238.95) rotate(180)"/>
          <rect class="cls-46" x="15.1" y="115.73" width="1.43" height="3.47" transform="translate(31.64 234.93) rotate(180)"/>
          <path class="cls-26" d="M16.34,124.53h11.02c.82-5.41,6.28-9.59,12.89-9.59h10.09v-31.5h-21.71c-1.19,0-2.26.59-2.75,1.51l-3.18,5.99-3.99,8.11c-.53,1.08-.97,2.2-1.3,3.33-.51,1.72-.78,3.49-.8,5.28l-.02,1.32-.04,2.67-.07,4.47-.04,2.68-.09,5.72Z"/>
          <path class="cls-55" d="M15.34,120h7.83v4.36c0,.88-.71,1.59-1.59,1.59h-6.24v-5.96h0Z" transform="translate(38.5 245.96) rotate(180)"/>
          <g>
            <path class="cls-27" d="M43.22,110.88v-18.85c0-1.01-.97-1.84-2.17-1.84h-8.52c-.91,0-1.73.49-2.04,1.22l-3.69,8.7c-.08.2-.13.41-.13.62v10.15c0,1.01.97,1.84,2.17,1.84h12.21c1.2,0,2.17-.82,2.17-1.84Z"/>
            <path class="cls-7" d="M31.44,99.4h8.55c.3,0,.56-.08.79-.2.37-.21.61-.57.61-.97v-4.89c0-.65-.62-1.18-1.39-1.18h-6.55c-.24,0-.47.05-.66.15-.3.13-.53.36-.65.65l-2.01,4.89c-.32.77.36,1.56,1.32,1.56Z"/>
            <path class="cls-8" d="M31.44,99.4h8.55c.3,0,.56-.08.79-.2l-8-6.9c-.3.13-.53.36-.65.65l-2.01,4.89c-.32.77.36,1.56,1.32,1.56Z"/>
            <rect class="cls-12" x="28.21" y="91.54" width="1.21" height="8.88" rx=".6" ry=".6"/>
          </g>
          <g>
            <circle class="cls-15" cx="37.93" cy="122.84" r="9.11" transform="translate(-75.75 62.8) rotate(-45)"/>
            <circle class="cls-51" cx="38.02" cy="122.84" r="5.89" transform="translate(-27.11 11.96) rotate(-13.23)"/>
            <path class="cls-16" d="M33.77,122.84c0,2.35,1.9,4.25,4.25,4.25s4.25-1.9,4.25-4.25-1.9-4.25-4.25-4.25-4.25,1.9-4.25,4.25ZM34.53,121.35c.08.03.13.13.09.21-.07.2-.13.4-.17.61-.01.08-.08.13-.16.13-.01,0-.02,0-.03,0-.09-.02-.15-.1-.13-.19.04-.23.1-.45.19-.66.03-.08.12-.13.21-.09ZM36.24,119.67c-.18.1-.36.22-.52.36-.03.02-.07.04-.1.04-.05,0-.09-.02-.13-.06-.06-.07-.05-.17.02-.23.18-.15.37-.28.57-.39.08-.04.18-.02.22.06.04.08.02.18-.06.22ZM37.56,119.07c.02.09-.04.17-.13.19-.21.04-.41.09-.61.16-.02,0-.04,0-.05,0-.07,0-.13-.04-.15-.11-.03-.08.02-.18.1-.21.22-.08.44-.13.67-.17.08-.01.17.05.19.13ZM38.87,119.14c-.02.08-.08.13-.16.13,0,0-.02,0-.03,0-.21-.04-.42-.06-.63-.06-.09,0-.16-.07-.16-.16,0-.09.07-.16.16-.16h0c.23,0,.46.02.68.07.09.02.15.1.13.19ZM40.08,119.65c-.03.05-.08.08-.14.08-.03,0-.06,0-.08-.02-.18-.11-.37-.2-.57-.27-.08-.03-.13-.12-.09-.21.03-.08.12-.13.21-.09.22.08.43.18.62.3.08.05.1.15.06.22ZM41.05,120.55s-.07.04-.1.04c-.05,0-.09-.02-.13-.06-.13-.16-.28-.31-.44-.45-.07-.06-.08-.16-.02-.23.06-.07.16-.08.23-.02.17.15.34.31.48.49.06.07.05.17-.02.23ZM41.75,121.51c.03.08-.01.18-.1.21-.02,0-.04,0-.05,0-.07,0-.13-.04-.15-.11-.07-.2-.16-.39-.26-.57-.04-.08-.02-.18.06-.22.08-.04.18-.02.22.06.11.2.21.41.29.62ZM41.81,123.01c-.09,0-.16-.08-.16-.17,0-.21-.02-.41-.05-.61-.02-.09.04-.17.13-.19.09-.01.17.04.19.13.04.22.06.44.06.66v.02c0,.09-.07.15-.16.15ZM41.52,124.3c-.08-.03-.13-.12-.1-.21.07-.19.13-.4.17-.61.02-.09.09-.14.19-.13.09.02.15.1.13.19-.04.23-.1.45-.18.66-.02.07-.09.11-.15.11-.02,0-.04,0-.06-.01ZM40.79,125.18c.14-.16.26-.34.36-.51.04-.08.15-.1.22-.06.08.05.1.14.06.22-.11.2-.25.38-.4.56-.03.04-.08.06-.12.06-.04,0-.07-.01-.1-.04-.07-.06-.08-.16-.02-.23ZM39.83,125.99c.18-.1.36-.23.52-.36.07-.06.17-.05.23.02.06.07.05.17-.02.23-.18.15-.37.28-.56.39-.03.01-.05.02-.08.02-.06,0-.11-.03-.14-.08-.04-.08-.02-.18.06-.22ZM38.51,126.6c-.02-.09.04-.17.13-.19.21-.04.41-.09.61-.16.09-.03.18.01.21.1.03.08-.01.18-.1.21-.22.08-.44.14-.67.18,0,0-.02,0-.03,0-.08,0-.15-.06-.16-.13ZM37.2,126.54c.02-.09.09-.14.19-.13.21.04.42.06.63.06.09,0,.16.07.16.16,0,.09-.07.16-.16.16h0c-.23,0-.46-.02-.69-.06-.09-.02-.15-.1-.13-.19ZM35.98,126.03c.05-.08.15-.1.22-.06.18.11.37.2.57.27.08.03.13.12.1.21-.02.07-.09.11-.15.11-.02,0-.04,0-.06,0-.21-.08-.42-.18-.62-.29-.08-.05-.1-.14-.06-.22ZM35.01,125.15c.07-.06.17-.05.23.02.13.16.28.31.45.45.07.06.08.16.02.23-.03.04-.08.06-.12.06-.04,0-.07-.01-.1-.04-.18-.15-.34-.31-.48-.49-.06-.07-.05-.17.02-.23ZM34.9,120.99c-.03.05-.08.08-.14.08-.03,0-.06,0-.08-.02-.08-.05-.1-.15-.06-.22.12-.2.25-.38.4-.56.06-.07.16-.08.23-.02.07.06.08.16.02.23-.14.16-.26.33-.37.51ZM34.31,124.19c-.03-.08.01-.18.1-.21.09-.03.18.01.21.1.07.2.16.39.27.57.04.08.02.18-.06.22-.03.02-.05.02-.08.02-.06,0-.11-.03-.14-.08-.12-.2-.21-.41-.29-.62ZM34.07,122.84v-.04c0-.09.07-.16.16-.16s.16.07.16.16v.04c0,.21.02.42.05.63.02.09-.04.17-.13.19,0,0-.02,0-.03,0-.08,0-.15-.06-.16-.13-.04-.22-.06-.46-.06-.69Z"/>
            <path class="cls-4" d="M35.46,122.84c0,1.42,1.15,2.56,2.56,2.56s2.56-1.15,2.56-2.56-1.15-2.56-2.56-2.56-2.56,1.15-2.56,2.56Z"/>
          </g>
          <path class="cls-35" d="M21.82,125.96h5.43c0-.48.04-.96.11-1.42.82-5.41,6.28-9.59,12.89-9.59h12.8v-5.08h-12.24c-5.24,0-9.99,1.8-13.43,4.71-3.06,2.6-5.09,6.08-5.49,9.96-.05.47-.07.95-.07,1.42Z"/>
          <g>
            <path class="cls-20" d="M17.4,102.38h2.39c.38,0,.73-.11,1.01-.31.23-.16.4-.36.5-.61l3.5-8.73c.35-.88-.42-1.79-1.51-1.79h-.6l-1.17,2.38-2.82,5.73c-.53,1.08-.97,2.2-1.3,3.33Z"/>
            <path class="cls-9" d="M17.4,102.38h2.39c.38,0,.73-.11,1.01-.31l.72-8.75-2.82,5.73c-.53,1.08-.97,2.2-1.3,3.33Z"/>
          </g>
          <path class="cls-48" d="M16.43,118.81h4.88c.46,0,.83-.32.83-.71v-1.27c0-.39-.37-.71-.83-.71h-4.84l-.04,2.68Z"/>
          <rect class="cls-30" x="29.21" y="81.38" width="21.12" height="2.06" transform="translate(79.55 164.83) rotate(180)"/>
          <rect class="cls-24" x="13.97" y="121.33" width="1.36" height="3.67" transform="translate(29.31 246.34) rotate(180)"/>
          <polygon class="cls-19" points="16.54 111.65 22.31 111.65 22.31 108.98 16.58 108.98 16.54 111.65"/>
        </g>
      </g>
    </g>
  </g>
</svg>