<?xml version="1.0" encoding="UTF-8"?>
<svg id="Capa_1" data-name="Capa 1" xmlns="http://www.w3.org/2000/svg" viewBox="0 0 200 200">
  <defs>
    <style>
      .cls-1 {
        fill: #ff9e00;
      }

      .cls-2 {
        fill: #f5f4e2;
      }

      .cls-3 {
        fill: #ebebda;
      }

      .cls-4 {
        fill: #fe0000;
      }

      .cls-5 {
        fill: #ffb13d;
      }

      .cls-6 {
        fill: #ff9e0d;
      }
    </style>
  </defs>
  <g>
    <path class="cls-3" d="M165.5,99.73c7.16-7.55,7.16-19.79,0-27.35-4.57-4.82-10.95-6.55-16.83-5.21-.58-14.33-11.74-25.76-25.46-25.76-2.77,0-5.44.48-7.93,1.34-3.42-6.53-10.01-10.96-17.59-10.96-9.3,0-17.1,6.68-19.38,15.74-3.26-2.41-7.23-3.84-11.52-3.84-11.08,0-20.08,9.49-20.08,21.19,0,1.37.14,2.7.37,4-11.69,2.45-20.5,13.34-20.5,26.4,0,14.14,10.34,25.72,23.46,26.82.2,5.13,2.14,10.18,5.84,14.1,6.51,6.87,16.36,8.02,24.01,3.48.92,1.45,1.98,2.83,3.19,4.11,9.97,10.52,26.12,10.52,36.09,0,2.59-2.72,4.49-5.9,5.73-9.28,7.73,5.02,17.99,4.02,24.7-3.05,6.69-7.08,7.65-17.88,2.9-26.05,4.7,0,9.41-1.87,12.99-5.66Z"/>
    <path class="cls-2" d="M157.23,98.43c5.99-6.32,5.99-16.58,0-22.9-3.83-4.03-9.17-5.48-14.09-4.36-.49-12-9.83-21.57-21.32-21.57-2.32,0-4.55.4-6.64,1.13-2.87-5.47-8.38-9.19-14.73-9.19-7.79,0-14.33,5.6-16.23,13.19-2.74-2.03-6.05-3.22-9.64-3.22-9.29,0-16.81,7.94-16.81,17.74,0,1.15.11,2.26.31,3.34-9.78,2.07-17.16,11.18-17.16,22.11,0,11.84,8.66,21.54,19.65,22.46.17,4.29,1.79,8.53,4.89,11.81,5.45,5.75,13.7,6.71,20.11,2.91.77,1.22,1.65,2.37,2.67,3.44,8.34,8.81,21.87,8.81,30.22,0,2.17-2.29,3.76-4.94,4.8-7.77,6.48,4.21,15.06,3.36,20.68-2.56,5.61-5.92,6.41-14.97,2.43-21.81,3.94,0,7.88-1.57,10.88-4.74Z"/>
  </g>
  <path class="cls-4" d="M91.98,152.23s4.49,15.07,2.87,23.04c0,0,1.77,2.13,4.79,1.94v-25.57s-2.35-3.26-7.66.6Z"/>
  <path class="cls-4" d="M107.3,152.23s-4.49,15.07-2.87,23.04c0,0-1.77,2.13-4.79,1.94v-25.57s2.35-3.26,7.66.6Z"/>
  <g>
    <g>
      <path class="cls-4" d="M80.86,153.63c-.13,3.27-2.88,5.81-6.14,5.66-3.26-.15-5.79-2.91-5.65-6.19.14-3.27,2.88-5.8,6.14-5.66,3.26.15,5.79,2.91,5.65,6.19Z"/>
      <path class="cls-4" d="M90.88,147.23c-.18,4.34-3.82,7.7-8.14,7.5-4.32-.2-7.67-3.86-7.49-8.2.18-4.34,3.82-7.7,8.14-7.51,4.31.2,7.67,3.87,7.49,8.2Z"/>
      <path class="cls-4" d="M101.42,144.85c-.18,4.33-3.83,7.69-8.14,7.5-4.31-.18-7.67-3.86-7.49-8.19.18-4.34,3.82-7.7,8.14-7.5,4.32.19,7.67,3.86,7.49,8.2Z"/>
      <path class="cls-4" d="M113.32,144.81c-.18,4.33-3.82,7.69-8.14,7.5-4.32-.19-7.67-3.86-7.49-8.19.18-4.34,3.82-7.7,8.14-7.51,4.31.19,7.67,3.86,7.49,8.2Z"/>
      <path class="cls-4" d="M126.43,146.65c-.18,4.33-3.82,7.69-8.14,7.5-4.32-.19-7.67-3.86-7.49-8.2.18-4.34,3.83-7.7,8.14-7.51,4.32.19,7.67,3.86,7.49,8.2Z"/>
      <path class="cls-4" d="M133.26,152.11c-.13,3.23-2.84,5.72-6.05,5.58-3.21-.14-5.7-2.87-5.57-6.09.13-3.22,2.84-5.72,6.05-5.57,3.21.14,5.7,2.86,5.57,6.09Z"/>
      <path class="cls-4" d="M120.05,148.24c.12-2.95,2.6-5.24,5.54-5.11,2.94.13,5.23,2.63,5.1,5.59-.12,2.95-2.6,5.24-5.54,5.11-2.94-.13-5.22-2.63-5.1-5.58Z"/>
      <path class="cls-4" d="M111.01,154.02c.16-3.91,3.45-6.95,7.35-6.77,3.9.17,6.93,3.48,6.76,7.4-.16,3.92-3.45,6.95-7.35,6.77-3.89-.17-6.92-3.49-6.76-7.4Z"/>
      <path class="cls-4" d="M101.5,156.17c.16-3.91,3.93-10.65,7.83-10.48,3.89.17,6.44,7.19,6.28,11.11-.16,3.91-3.45,6.94-7.35,6.77-3.9-.18-6.92-3.49-6.76-7.4Z"/>
      <path class="cls-4" d="M90.75,156.21c.16-3.91,3.45-6.95,7.35-6.77,3.9.17,6.92,3.49,6.77,7.4-.16,3.91-3.45,6.95-7.35,6.77-3.89-.17-6.92-3.49-6.76-7.4Z"/>
      <path class="cls-4" d="M78.92,154.54c.16-3.91,3.45-6.94,7.35-6.77,3.9.17,6.92,3.49,6.76,7.4-.16,3.91-3.45,6.94-7.35,6.77-3.9-.18-6.92-3.49-6.76-7.4Z"/>
      <path class="cls-4" d="M72.75,149.62c.12-2.91,2.56-5.16,5.46-5.03,2.9.13,5.14,2.59,5.03,5.5-.12,2.91-2.56,5.16-5.46,5.04-2.9-.13-5.15-2.59-5.03-5.5Z"/>
    </g>
    <g>
      <path class="cls-6" d="M87.32,149.76c-.09,2.13-1.94,3.78-4.13,3.69-2.19-.1-3.89-1.9-3.8-4.02.09-2.13,1.94-3.78,4.13-3.68,2.19.09,3.9,1.89,3.81,4.02Z"/>
      <path class="cls-6" d="M94.06,145.6c-.12,2.82-2.57,5.01-5.48,4.89-2.91-.13-5.16-2.52-5.04-5.34.12-2.82,2.57-5,5.48-4.88,2.91.12,5.16,2.51,5.04,5.33Z"/>
      <path class="cls-6" d="M101.16,144.05c-.12,2.82-2.57,5.01-5.48,4.88-2.91-.13-5.17-2.51-5.05-5.33.12-2.82,2.58-5,5.48-4.88,2.91.13,5.17,2.51,5.04,5.33Z"/>
      <path class="cls-6" d="M109.17,144.03c-.12,2.82-2.57,5-5.48,4.88-2.91-.12-5.16-2.51-5.05-5.33.12-2.82,2.57-5.01,5.48-4.88,2.91.13,5.16,2.51,5.05,5.34Z"/>
      <path class="cls-6" d="M118,145.22c-.12,2.83-2.57,5-5.48,4.88-2.91-.12-5.17-2.51-5.04-5.33.12-2.82,2.57-5.01,5.48-4.88,2.91.13,5.16,2.51,5.05,5.33Z"/>
      <path class="cls-6" d="M122.6,148.77c-.09,2.1-1.91,3.72-4.07,3.63-2.16-.09-3.84-1.87-3.75-3.97.09-2.09,1.91-3.72,4.07-3.63,2.16.09,3.84,1.87,3.75,3.96Z"/>
      <path class="cls-6" d="M113.71,146.26c.08-1.92,1.75-3.41,3.73-3.32,1.98.08,3.52,1.71,3.43,3.63-.08,1.92-1.75,3.41-3.73,3.32-1.98-.08-3.52-1.71-3.43-3.63Z"/>
      <path class="cls-6" d="M107.62,150.02c.11-2.55,2.33-4.52,4.95-4.41,2.62.11,4.66,2.27,4.55,4.81-.11,2.55-2.32,4.52-4.95,4.41-2.62-.1-4.66-2.27-4.56-4.81Z"/>
      <path class="cls-6" d="M101.21,151.42c.11-2.55,2.65-6.93,5.27-6.82,2.62.12,4.34,4.68,4.23,7.22-.11,2.55-2.32,4.52-4.95,4.41-2.63-.11-4.66-2.27-4.55-4.81Z"/>
      <path class="cls-6" d="M93.98,151.44c.11-2.54,2.32-4.52,4.94-4.41,2.63.12,4.66,2.26,4.55,4.81-.11,2.54-2.32,4.52-4.95,4.41-2.63-.11-4.67-2.27-4.55-4.81Z"/>
      <path class="cls-6" d="M86.01,150.36c.11-2.55,2.33-4.52,4.95-4.41,2.62.11,4.66,2.27,4.55,4.81-.11,2.55-2.32,4.52-4.95,4.41-2.62-.11-4.66-2.26-4.56-4.81Z"/>
      <path class="cls-6" d="M81.86,147.15c.08-1.9,1.73-3.36,3.68-3.28,1.95.08,3.46,1.69,3.38,3.58-.08,1.89-1.73,3.35-3.68,3.27-1.95-.08-3.46-1.69-3.39-3.57Z"/>
    </g>
  </g>
  <path class="cls-4" d="M89.57,116.84s5.97,20.04,3.81,30.64c0,0,2.36,2.84,6.38,2.59v-34.02s-3.13-4.34-10.19.79Z"/>
  <path class="cls-4" d="M109.95,116.84s-5.97,20.04-3.81,30.64c0,0-2.36,2.84-6.38,2.59v-34.02s3.13-4.34,10.19.79Z"/>
  <path class="cls-4" d="M145.05,198.45s1.36-7.82-5.29-10.83c-.88-.41-1.86-.6-2.87-.6-1.92,0-3.68.77-5.08,2.04-1.43-2.73-4.04-4.56-7.01-4.56-1.19,0-2.31.29-3.33.82-.71-5-4.47-8.8-9.01-8.8-.14,0-.29,0-.43,0-.5,2.02-1.66,3.63-3.19,4.32-1.07,2.42-2.97,3.9-5.07,3.9-.47,0-.94-.07-1.39-.23-1.06,2.37-2.95,3.85-5.05,3.85-1.46,0-2.87-.74-3.96-2.07-.76-.92-1.33-2.11-1.65-3.42-.09,0-.19,0-.28,0-2.39,0-4.39-2.22-4.96-5.21-2.49.34-4.64,1.98-5.92,4.3-.85-.33-1.76-.52-2.7-.52-3.87,0-7.11,3.08-7.96,7.24-1.32-1.05-2.92-1.67-4.65-1.67-2.84,0-4.35-.28-8.11,3.61-1.17,1.21-2.79,7.82-2.79,7.82h90.7Z"/>
  <path class="cls-6" d="M108.73,169.21c.06.35.09.71.09,1.09,0,2.16-.97,4.03-2.43,4.81-.81,1.69-2.2,2.7-3.73,2.7-.21,0-.42-.02-.63-.06-.82,1.52-2.13,2.44-3.6,2.44-1.83,0-3.41-1.44-4.09-3.59-2.06-.16-3.69-2.42-3.69-5.19,0-.07,0-.14,0-.19-.16-.03-.33-.04-.51-.04-2.56,0-4.63,2.92-4.63,6.55s2.07,6.55,4.63,6.55c.47,0,.93-.1,1.37-.29.41,3.78,2.71,6.66,5.5,6.66,2.34,0,4.35-2.05,5.16-4.95.71.46,1.51.73,2.34.73,2.15,0,4.01-1.73,4.94-4.26,2.1-.62,3.68-3.26,3.68-6.41,0-3.51-1.95-6.36-4.4-6.53Z"/>
  <path class="cls-4" d="M88.9,172.31c0,.28.02.56.05.83,0,.01,0,.02,0,.04.02.14.04.28.06.41,0,.01,0,.03.01.05.02.14.05.27.09.39,0,.01,0,.03.01.05.03.13.07.26.11.38,0,.01.01.02.02.03.04.13.09.25.14.37,0,0,0,.01,0,.01.42,1.03,1.1,1.83,1.9,2.24,0,0,0,0,0,.01.1.05.2.09.3.13,0,0,0,0,.01,0,.1.03.21.07.31.09,0,0,0,0,0,0,.19.04.38.07.57.07.37,0,.72-.08,1.06-.23.32,2.94,2.11,5.19,4.29,5.19,1.83,0,3.39-1.6,4.03-3.86.56.37,1.18.57,1.83.57,1.68,0,3.13-1.35,3.85-3.32,1.64-.49,2.87-2.54,2.87-5,0-2.82-1.62-5.11-3.61-5.11-.91,0-1.73.46-2.36,1.24-.24-.06-.49-.09-.75-.09-.03,0-.07,0-.1,0-.87-1.8-2.53-3.01-4.45-3.01-2.27,0-4.19,1.72-4.85,4.08-.53-.44-1.14-.69-1.8-.69-2,0-3.61,2.29-3.61,5.11Z"/>
  <polygon class="cls-1" points="174.03 3.37 137.93 44.19 154.66 40.53 138.24 61.59 168.07 33.77 150.05 36.15 174.03 3.37"/>
  <g>
    <path class="cls-6" d="M125.1,126.2c-3.44-1.18-6.34-3.04-8.57-5.32.72.33,1.45.63,2.23.89,11.15,3.82,23.77-.91,28.18-10.56,2.09-4.56,1.96-9.4.07-13.64-.74.45-1.5.88-2.33,1.25-2.86,1.26-5.92,1.83-8.92,1.78.66-.22,1.31-.45,1.95-.74,3.09-1.37,5.54-3.38,7.29-5.74.19-.26.38-.51.55-.77,3-4.61,3.37-10.39.38-15.46-2.16-3.66-5.7-6.3-9.79-7.71-.73-.25-1.47-.46-2.23-.63-.18-.48-.4-.94-.64-1.39-2.29-4.26-7.27-7.21-13.05-7.21-1.36,0-2.68.16-3.94.47.03.06.06.13.09.19-.06-.05-.12-.11-.18-.17-3.75.95-6.87,3.18-8.68,6.1.45-3.48,2.56-6.53,5.63-8.54-9.66-6.48-23.6-5.53-31.92,2.46-1.73,1.67-3.08,3.51-4.06,5.45-.46.91-.84,1.84-1.14,2.78-1.29,4.07-1.11,8.41.55,12.37-3.24-3.16-5.14-7.01-5.71-10.99-7.61,2.91-13.21,9.23-13.97,16.92-.32,3.18.24,6.25,1.48,9.04.27.61.57,1.21.9,1.8,1.88,3.25,4.73,6.03,8.27,8.02-3.3-.57-6.31-1.75-8.93-3.35-.06,8.38,5.88,16.27,15.5,19.3,6.45,2.03,13.25,1.47,18.9-1.06-2.71-4.8-3.25-10.51-.97-15.93,1.37-3.26,3.62-6.04,6.41-8.2-.39.68-.75,1.38-1.06,2.12-4.46,10.58,1.84,22.29,14.07,26.15,4.77,1.5,9.74,1.59,14.29.51-.21-.06-.42-.11-.63-.19Z"/>
    <path class="cls-4" d="M152.89,76.86c-3.32-5.63-9.9-8.87-16.73-8.89-.58-6.43-6.78-11.48-14.35-11.48-2.67,0-5.16.63-7.3,1.73-1.19-1.75-2.7-3.38-4.54-4.82-9.67-7.54-24.57-6.88-33.29,1.5-3.49,3.35-5.45,7.43-5.93,11.59-11.5.58-21.06,8.4-22.08,18.63-.61,6.19,2.05,11.96,6.73,16.06-.27.51-.53,1.02-.75,1.56-4.46,10.58,1.84,22.29,14.07,26.15,9.21,2.91,19.15.53,25.4-5.35,2.68,3.76,6.79,6.79,11.96,8.42,8.79,2.77,18.24.72,24.52-4.58,9.52.95,18.98-3.66,22.67-11.75,3.15-6.89,1.25-14.42-4.15-19.56,5.87-4.85,7.65-12.64,3.76-19.22ZM146.94,111.21c-4.41,9.66-17.03,14.39-28.18,10.56-.77-.26-1.51-.57-2.23-.89,2.23,2.28,5.13,4.14,8.57,5.32.21.07.42.12.63.19-4.55,1.08-9.52.99-14.29-.51-12.23-3.86-18.53-15.57-14.07-26.15.31-.74.67-1.44,1.06-2.12-2.79,2.16-5.04,4.94-6.41,8.2-2.28,5.42-1.74,11.13.97,15.93-5.65,2.54-12.45,3.1-18.9,1.06-9.62-3.04-15.56-10.93-15.5-19.3,2.62,1.6,5.64,2.78,8.93,3.35-3.53-1.99-6.39-4.77-8.27-8.02-.34-.58-.63-1.19-.9-1.8-1.24-2.79-1.8-5.86-1.48-9.04.76-7.69,6.36-14.01,13.97-16.92.57,3.98,2.47,7.83,5.71,10.99-1.65-3.96-1.84-8.3-.55-12.37.3-.94.68-1.87,1.14-2.78.99-1.94,2.33-3.78,4.06-5.45,8.32-7.98,22.26-8.94,31.92-2.46-3.07,2.01-5.17,5.06-5.63,8.54,1.81-2.92,4.93-5.16,8.68-6.1.06.06.12.12.18.17-.03-.06-.06-.13-.09-.19,1.25-.31,2.57-.47,3.94-.47,5.72,0,10.64,2.89,12.97,7.07-2.03.2-4.71.8-6.78,2.46,0,0,4.44-2.28,10.81.12,3.63,1.49,6.74,3.97,8.71,7.29,2.99,5.07,2.62,10.85-.38,15.46-.17.26-.36.52-.55.77-1.74,2.36-4.2,4.37-7.29,5.74-.64.28-1.29.52-1.95.74,3,.05,6.06-.52,8.92-1.78.83-.37,1.6-.79,2.33-1.25,1.88,4.24,2.01,9.08-.07,13.64Z"/>
  </g>
  <path class="cls-5" d="M91.65,72.17c-2.05,0-3.71,1.66-3.71,3.71s1.66,3.71,3.71,3.71,3.71-1.66,3.71-3.71-1.66-3.71-3.71-3.71ZM91.65,78.14c-1.42,0-2.58-1.16-2.58-2.58s1.15-2.58,2.58-2.58,2.58,1.15,2.58,2.58-1.16,2.58-2.58,2.58Z"/>
  <path class="cls-5" d="M107.7,91.49c-1.43,0-2.58,1.15-2.58,2.57s1.15,2.58,2.58,2.58,2.58-1.16,2.58-2.58-1.15-2.57-2.58-2.57ZM107.7,95.63c-.99,0-1.79-.8-1.79-1.79s.8-1.79,1.79-1.79,1.79.8,1.79,1.79-.8,1.79-1.79,1.79Z"/>
  <path class="cls-5" d="M67.35,92.8c-.61-4.69,1.86-8.95,5.64-10.11-.39-.01-.79,0-1.19.05-4.42.57-7.47,5.22-6.8,10.37.67,5.16,4.8,8.86,9.22,8.29.4-.05.78-.14,1.16-.26-3.95-.16-7.43-3.64-8.04-8.33Z"/>
  <path class="cls-5" d="M80.53,108.32c-3.13-1.17-4.98-4.12-4.46-6.88-.14.25-.26.5-.37.76-1.1,2.96.79,6.39,4.24,7.68,3.44,1.28,7.13-.08,8.23-3.03.1-.27.17-.54.22-.81-1.41,2.42-4.73,3.44-7.86,2.28Z"/>
  <path class="cls-5" d="M127.17,82.03c2.32,4.12,1.18,9.23-2.45,12.04.42-.16.85-.35,1.25-.57,4.53-2.55,6.14-8.28,3.59-12.81-2.54-4.53-8.28-6.14-12.81-3.59-.41.23-.78.49-1.14.77,4.29-1.64,9.24.05,11.56,4.17Z"/>
  <path class="cls-5" d="M90.82,63.24c-6.32,1.21-10.66,6.24-9.7,11.23,0,0,.33-6.62,10.22-8.52,9.89-1.9,12.65,4.14,12.65,4.14-.96-4.99-6.85-8.06-13.17-6.85Z"/>
  <path class="cls-5" d="M112.67,110.07c6.31-1.21,10.66-6.24,9.7-11.23,0,0-.33,6.62-10.22,8.52-9.89,1.89-12.65-4.13-12.65-4.13.96,4.99,6.85,8.06,13.17,6.85Z"/>
</svg>